Coordinates
version=1
nRows=13
nColumns=40
inDegrees=yes

Units are S.I. units (second, meters, Newtons, ...)
If the header above contains a line with 'inDegrees', this indicates whether rotational values are in degrees (yes) or radians (no).

endheader
time	pelvis_tilt	pelvis_list	pelvis_rotation	pelvis_tx	pelvis_ty	pelvis_tz	hip_flexion_r	hip_adduction_r	hip_rotation_r	knee_angle_r	knee_angle_r_beta	ankle_angle_r	subtalar_angle_r	mtp_angle_r	hip_flexion_l	hip_adduction_l	hip_rotation_l	knee_angle_l	knee_angle_l_beta	ankle_angle_l	subtalar_angle_l	mtp_angle_l	lumbar_extension	lumbar_bending	lumbar_rotation	arm_flex_r	arm_add_r	arm_rot_r	elbow_flex_r	pro_sup_r	wrist_flex_r	wrist_dev_r	arm_flex_l	arm_add_l	arm_rot_l	elbow_flex_l	pro_sup_l	wrist_flex_l	wrist_dev_l
      7.09500000	    -11.50155816	     -1.98986177	     -1.91976647	     -0.24122047	      1.32033009	     -0.90178814	     11.31651337	    -11.83159599	    -14.84321186	      5.45610173	      0.09522694	    -35.31362459	      0.00000000	      0.00000000	     13.17513527	    -20.99596215	    -14.99142168	      7.38008420	      0.12880677	    -35.22520432	      0.00000000	      0.00000000	     -4.58292129	      1.47014658	      3.06540023	    -39.83932403	    -54.17467758	     30.21126002	    101.25176323	     87.78808097	      0.00000000	      0.00000000	    -28.28951045	    -58.11714010	     38.98848668	    102.86058663	     87.70484102	      0.00000000	      0.00000000
      7.10000000	    -11.47442806	     -1.98820816	     -1.95100325	     -0.24272794	      1.31224785	     -0.90156451	     11.59984255	    -11.89607900	    -14.84692818	      5.41939441	      0.09458628	    -35.21481072	      0.00000000	      0.00000000	     13.42371541	    -21.03442072	    -14.98749235	      7.36764059	      0.12858959	    -35.14182049	      0.00000000	      0.00000000	     -5.00184839	      1.46272290	      3.06526624	    -39.82926253	    -54.17732041	     30.22327621	    101.24124259	     87.64194868	      0.00000000	      0.00000000	    -28.27846356	    -58.12629928	     38.99356418	    102.84902709	     87.56247457	      0.00000000	      0.00000000
      7.10500000	    -11.97376314	     -1.87940732	     -1.97102009	     -0.24424466	      1.30311796	     -0.90147210	     12.42016152	    -12.06928053	    -14.98672016	      5.24699084	      0.09157727	    -35.24830630	      0.00000000	      0.00000000	     14.43394841	    -21.00935586	    -15.00452335	      7.69429655	      0.13429081	    -35.32545679	      0.00000000	      0.00000000	     -4.69791422	      1.34297510	      3.12398125	    -39.87272146	    -54.03703545	     30.29158944	    101.10214059	     87.67041372	      0.00000000	      0.00000000	    -28.26866158	    -58.11630934	     39.00103393	    102.81193267	     87.59129971	      0.00000000	      0.00000000
      7.11000000	    -12.30897852	     -1.83523840	     -2.02870121	     -0.24624779	      1.29399636	     -0.90127822	     13.27138141	    -12.20035875	    -14.98983458	      5.52091170	      0.09635809	    -35.38862662	      0.00000000	      0.00000000	     15.32954797	    -21.05898421	    -15.09944413	      8.17554192	      0.14269012	    -35.28964584	      0.00000000	      0.00000000	     -4.66666233	      1.30288134	      3.14050400	    -39.63866123	    -54.02288227	     30.50507218	    100.94896180	     87.75978839	      0.00000000	      0.00000000	    -28.18621203	    -58.12270879	     39.12208980	    102.78644507	     87.67334608	      0.00000000	      0.00000000
      7.11500000	    -12.51326136	     -1.82311989	     -2.00386571	     -0.24785236	      1.28480537	     -0.90118896	     13.82854800	    -12.29473589	    -15.23838816	      5.54811061	      0.09683280	    -35.42337912	      0.00000000	      0.00000000	     16.00565668	    -21.08930456	    -15.07329997	      8.44868265	      0.14745733	    -35.32934222	      0.00000000	      0.00000000	     -4.78404551	      1.29774564	      3.13954173	    -39.72864918	    -53.93876249	     30.45888882	    100.91010440	     87.77709194	      0.00000000	      0.00000000	    -28.16302031	    -58.11948547	     39.16210232	    102.77127984	     87.71086933	      0.00000000	      0.00000000
      7.12000000	    -12.78442769	     -1.72309672	     -2.13333528	     -0.24917383	      1.27527794	     -0.90098778	     14.46235335	    -12.44366281	    -15.15176739	      5.50601983	      0.09609817	    -35.74028021	      0.00000000	      0.00000000	     16.61935964	    -21.03914559	    -15.09287518	      8.63961912	      0.15078980	    -35.52920974	      0.00000000	      0.00000000	     -4.77127283	      1.18716396	      3.22915284	    -39.59175993	    -53.90101190	     30.69092686	    100.68562828	     87.54269651	      0.00000000	      0.00000000	    -28.33317669	    -58.02568137	     38.97815183	    102.66799973	     87.44687716	      0.00000000	      0.00000000
      7.12500000	    -12.91089978	     -1.72299759	     -2.08158676	     -0.25096886	      1.26569236	     -0.90096784	     15.00825168	    -12.55087745	    -15.47667960	      5.76000236	      0.10053101	    -35.71084175	      0.00000000	      0.00000000	     17.29307791	    -21.07637605	    -15.14554446	      9.09432394	      0.15872590	    -35.47056832	      0.00000000	      0.00000000	     -4.99224629	      1.19531953	      3.14509658	    -39.48117825	    -53.92434563	     30.76138598	    100.74405356	     87.79217992	      0.00000000	      0.00000000	    -28.38108291	    -58.01451758	     38.97199595	    102.74775422	     87.72763418	      0.00000000	      0.00000000
      7.13000000	    -13.14490944	     -1.68120347	     -2.10017028	     -0.25223151	      1.25570086	     -0.90094009	     15.58901381	    -12.67347050	    -15.59417936	      5.86871213	      0.10242835	    -35.86328892	      0.00000000	      0.00000000	     17.94288511	    -21.05763262	    -15.23539486	      9.39046330	      0.16389450	    -35.57255919	      0.00000000	      0.00000000	     -5.02048392	      1.17108973	      3.21711638	    -39.59743466	    -53.79947677	     30.73491005	    100.59863085	     87.75521448	      0.00000000	      0.00000000	    -28.32155514	    -57.96368284	     39.01808356	    102.68016628	     87.69295442	      0.00000000	      0.00000000
      7.13500000	    -13.29486547	     -1.57838253	     -2.15973416	     -0.25408047	      1.24559150	     -0.90079352	     16.19287045	    -12.86910367	    -15.72264307	      6.10438324	      0.10654159	    -35.94102662	      0.00000000	      0.00000000	     18.56107174	    -21.00964329	    -15.33821355	      9.79277083	      0.17091609	    -35.73579472	      0.00000000	      0.00000000	     -5.22429507	      1.05770894	      3.26343625	    -39.51635537	    -53.76804834	     30.82743589	    100.56780048	     87.77216337	      0.00000000	      0.00000000	    -28.39810394	    -57.94164188	     38.87630510	    102.68200974	     87.69947946	      0.00000000	      0.00000000
      7.14000000	    -13.46366329	     -1.51792660	     -2.19489913	     -0.25541168	      1.23525742	     -0.90072634	     16.77710670	    -13.02342559	    -15.94378614	      6.38527890	      0.11144414	    -36.06523028	      0.00000000	      0.00000000	     19.15267345	    -20.99072726	    -15.57163348	     10.17970170	      0.17766931	    -35.93776264	      0.00000000	      0.00000000	     -5.34229471	      0.99829828	      3.26185482	    -39.38267718	    -53.69932833	     30.99069851	    100.42029944	     87.75938412	      0.00000000	      0.00000000	    -28.50832183	    -57.87369241	     38.73190905	    102.66442219	     87.70208249	      0.00000000	      0.00000000
      7.14500000	    -13.48367267	     -1.44688152	     -2.23091790	     -0.25725915	      1.22481801	     -0.90061746	     17.24386846	    -13.19838083	    -16.04991113	      6.73835371	      0.11760646	    -35.93095611	      0.00000000	      0.00000000	     19.64410108	    -20.97577146	    -15.77714279	     10.65300950	      0.18593009	    -35.88863946	      0.00000000	      0.00000000	     -5.72307693	      0.91726978	      3.30419566	    -39.34865821	    -53.62365054	     30.98054945	    100.43802699	     87.76295839	      0.00000000	      0.00000000	    -28.53005763	    -57.89271062	     38.62070895	    102.66546373	     87.71954365	      0.00000000	      0.00000000
      7.15000000	    -13.70001031	     -1.39651093	     -2.25471434	     -0.25856511	      1.21386540	     -0.90064849	     17.88751606	    -13.35288310	    -16.25675975	      7.11321353	      0.12414900	    -36.04734328	      0.00000000	      0.00000000	     20.33521416	    -20.97342606	    -16.06329742	     11.16158105	      0.19480634	    -36.13717716	      0.00000000	      0.00000000	     -5.77216850	      0.88497305	      3.33413933	    -39.33687415	    -53.60960929	     31.07625952	    100.32172183	     87.74123516	      0.00000000	      0.00000000	    -28.61423730	    -57.81499280	     38.52455885	    102.65691859	     87.68392541	      0.00000000	      0.00000000
      7.15500000	    -13.71563843	     -1.27201965	     -2.37814387	     -0.26036924	      1.20301129	     -0.90048592	     18.43707133	    -13.57299008	    -16.31619838	      7.61439994	      0.13289635	    -35.99171172	      0.00000000	      0.00000000	     20.77354760	    -20.93416106	    -16.44986899	     11.67803136	      0.20382010	    -36.36618929	      0.00000000	      0.00000000	     -6.14405524	      0.74971005	      3.45887435	    -39.28006795	    -53.53565533	     31.07082233	    100.27012983	     87.74670799	      0.00000000	      0.00000000	    -28.59948308	    -57.78650023	     38.51153185	    102.62314914	     87.70692893	      0.00000000	      0.00000000
